<?xml version="1.0" encoding="UTF-8" standalone="no"?>
<svg
   xmlns:dc="http://purl.org/dc/elements/1.1/"
   xmlns:cc="http://creativecommons.org/ns#"
   xmlns:rdf="http://www.w3.org/1999/02/22-rdf-syntax-ns#"
   xmlns:svg="http://www.w3.org/2000/svg"
   xmlns="http://www.w3.org/2000/svg"
   xmlns:xlink="http://www.w3.org/1999/xlink"
   xmlns:sodipodi="http://sodipodi.sourceforge.net/DTD/sodipodi-0.dtd"
   xmlns:inkscape="http://www.inkscape.org/namespaces/inkscape"
   width="256"
   height="256"
   viewBox="0 0 29 29"
   version="1.1"
   id="svg54"
   sodipodi:docname="readyToRunNew.svg"
   inkscape:version="0.92.5 (2060ec1f9f, 2020-04-08)">
  <metadata
     id="metadata58">
    <rdf:RDF>
      <cc:Work
         rdf:about="">
        <dc:format>image/svg+xml</dc:format>
        <dc:type
           rdf:resource="http://purl.org/dc/dcmitype/StillImage" />
        <dc:title>046 - Colour Wheel</dc:title>
      </cc:Work>
    </rdf:RDF>
  </metadata>
  <sodipodi:namedview
     pagecolor="#ffffff"
     bordercolor="#666666"
     borderopacity="1"
     objecttolerance="10"
     gridtolerance="10"
     guidetolerance="10"
     inkscape:pageopacity="0"
     inkscape:pageshadow="2"
     inkscape:window-width="1472"
     inkscape:window-height="1067"
     id="namedview56"
     showgrid="false"
     inkscape:zoom="2.6074563"
     inkscape:cx="158.00609"
     inkscape:cy="114.27858"
     inkscape:window-x="1475"
     inkscape:window-y="150"
     inkscape:window-maximized="0"
     inkscape:current-layer="svg54"
     inkscape:object-nodes="false" />
  <!-- Generator: Sketch 51.3 (57544) - http://www.bohemiancoding.com/sketch -->
  <title
     id="title2">046 - Colour Wheel</title>
  <desc
     id="desc4">Created with Sketch.</desc>
  <defs
     id="defs6">
    <linearGradient
       inkscape:collect="always"
       id="linearGradient1069">
      <stop
         style="stop-color:#1b511a;stop-opacity:1"
         offset="0"
         id="stop1065" />
      <stop
         style="stop-color:#9ade98;stop-opacity:1"
         offset="1"
         id="stop1067" />
    </linearGradient>
    <linearGradient
       inkscape:collect="always"
       id="linearGradient985">
      <stop
         style="stop-color:#636363;stop-opacity:1"
         offset="0"
         id="stop981" />
      <stop
         style="stop-color:#fdfdfd;stop-opacity:1"
         offset="1"
         id="stop983" />
    </linearGradient>
    <linearGradient
       inkscape:collect="always"
       xlink:href="#linearGradient985"
       id="linearGradient987"
       x1="19.044287"
       y1="17.008009"
       x2="13.026169"
       y2="12.281067"
       gradientUnits="userSpaceOnUse"
       gradientTransform="matrix(1.0764894,0,0,1.0764894,-2.5474822,-1.0854342)" />
    <linearGradient
       inkscape:collect="always"
       xlink:href="#linearGradient1069"
       id="linearGradient1071"
       x1="12.762861"
       y1="12.517413"
       x2="2.622957"
       y2="1.7544932"
       gradientUnits="userSpaceOnUse"
       gradientTransform="matrix(1.0764894,0,0,1.0764894,0.20041388,0.52779092)" />
  </defs>
  <path
     d="M 14.500059,1.8000389 V 6.6172755 C 12.409084,6.6159514 10.403426,7.446281 8.9252213,8.925162 L 5.5181334,5.5180735 C 7.8979885,3.1327723 11.130587,1.7946565 14.500059,1.8000389 Z"
     id="Shape-7"
     inkscape:connector-curvature="0"
     style="fill:#37a032;fill-opacity:1;fill-rule:nonzero;stroke:#ffffff;stroke-width:0.88360685;stroke-miterlimit:4;stroke-dasharray:none;stroke-opacity:1" />
  <path
     d="M 23.481985,5.5180735 20.074898,8.925162 C 18.596691,7.446281 16.591034,6.615974 14.500059,6.6172755 V 1.8000389 c 3.369474,-0.00537 6.602071,1.3327333 8.981926,3.7180346 z"
     id="path10-4"
     inkscape:connector-curvature="0"
     style="fill:#2f892b;fill-opacity:1;fill-rule:nonzero;stroke:#ffffff;stroke-width:0.88360685;stroke-miterlimit:4;stroke-dasharray:none;stroke-opacity:1" />
  <path
     d="m 27.20002,14.500001 h -4.817236 c 0.0013,-2.090976 -0.829006,-4.096633 -2.307886,-5.574839 l 3.407087,-3.4070885 c 2.385303,2.3798556 3.723417,5.6124545 3.718035,8.9819275 z"
     id="path12-5"
     inkscape:connector-curvature="0"
     style="fill:#277224;fill-opacity:1;fill-rule:nonzero;stroke:#ffffff;stroke-width:0.88360685;stroke-miterlimit:4;stroke-dasharray:none;stroke-opacity:1" />
  <path
     d="m 27.20002,14.500001 c 0.0054,3.369474 -1.332732,6.60207 -3.718035,8.981926 L 20.074898,20.07484 c 1.47888,-1.478207 2.309187,-3.483864 2.307886,-5.574839 z"
     id="path14-4"
     inkscape:connector-curvature="0"
     style="fill:#1f5b1d;fill-opacity:1;fill-rule:nonzero;stroke:#ffffff;stroke-width:0.88360685;stroke-miterlimit:4;stroke-dasharray:none;stroke-opacity:1" />
  <path
     d="m 23.481985,23.481927 c -2.379855,2.385302 -5.612452,3.723416 -8.981926,3.718035 v -4.817236 c 2.090975,0.0013 4.096632,-0.829006 5.574839,-2.307886 z"
     id="path16-9"
     inkscape:connector-curvature="0"
     style="fill:#297927;fill-opacity:1;fill-rule:nonzero;stroke:#ffffff;stroke-width:0.88360685;stroke-miterlimit:4;stroke-dasharray:none;stroke-opacity:1" />
  <path
     d="m 14.500059,22.382726 v 4.817236 c -3.369472,0.0054 -6.6020705,-1.332733 -8.9819256,-3.718035 L 8.9252213,20.07484 c 1.4782047,1.47888 3.4838627,2.309187 5.5748377,2.307886 z"
     id="path18-1"
     inkscape:connector-curvature="0"
     style="fill:#339731;fill-opacity:1;fill-rule:nonzero;stroke:#ffffff;stroke-width:0.88360685;stroke-miterlimit:4;stroke-dasharray:none;stroke-opacity:1" />
  <path
     d="M 8.9252213,20.07484 5.5181334,23.481927 C 3.1328319,21.102071 1.7947161,17.869475 1.8000987,14.500001 h 4.8172368 c -0.00132,2.090975 0.8290057,4.096632 2.3078858,5.574839 z"
     id="path20-9"
     inkscape:connector-curvature="0"
     style="fill:#4ec648;fill-opacity:1;fill-rule:nonzero;stroke:#ffffff;stroke-width:0.88360685;stroke-miterlimit:4;stroke-dasharray:none;stroke-opacity:1" />
  <path
     d="M 8.9252213,8.925162 C 7.4463412,10.403368 6.6160339,12.409025 6.6173355,14.500001 H 1.8000987 C 1.7947162,11.130528 3.1328319,7.8979291 5.5181334,5.5180735 Z"
     id="path22-2"
     inkscape:connector-curvature="0"
     style="fill:#3fb739;fill-opacity:1;fill-rule:nonzero;stroke:#ffffff;stroke-width:0.88360685;stroke-miterlimit:4;stroke-dasharray:none;stroke-opacity:1" />
  <path
     d="m 22.382785,14.500001 h -5.255152 c 0.002,-0.697182 -0.275543,-1.366072 -0.770755,-1.85682 l 3.71802,-3.718019 c 1.47888,1.478206 2.309187,3.483863 2.307887,5.574839 z"
     id="path32-5"
     inkscape:connector-curvature="0"
     style="fill:#277224;fill-opacity:1;fill-rule:nonzero;stroke:#ffffff;stroke-width:0.33135259;stroke-miterlimit:4;stroke-dasharray:none;stroke-opacity:1" />
  <path
     d="m 12.64324,12.643181 c -0.495211,0.490748 -0.772863,1.159638 -0.770755,1.85682 H 6.6173341 c -0.00131,-2.090976 0.8290071,-4.096633 2.3078872,-5.574839 z"
     id="path34-5"
     inkscape:connector-curvature="0"
     style="fill:#3fb739;fill-opacity:1;fill-rule:nonzero;stroke:#ffffff;stroke-width:0.33135259;stroke-miterlimit:4;stroke-dasharray:none;stroke-opacity:1" />
  <path
     d="m 17.127633,14.500001 c 0.0017,1.255798 -0.883831,2.33794 -2.115223,2.58432 -1.231392,0.246383 -2.465289,-0.411662 -2.946735,-1.571507 -0.481446,-1.159846 -0.07627,-2.49826 0.967629,-3.196339 1.043896,-0.698078 2.435588,-0.561276 3.323574,0.326706 0.495212,0.490748 0.772865,1.159638 0.770755,1.85682 z"
     id="path36-5"
     inkscape:connector-curvature="0"
     style="fill:#4482c3;fill-rule:nonzero;stroke:#ffffff;stroke-width:0.33135259;stroke-miterlimit:4;stroke-dasharray:none;stroke-opacity:1" />
  <path
     d="m 14.500059,6.6172742 v 5.2551528 c -0.697182,-0.002 -1.366071,0.275543 -1.856819,0.770754 L 8.9252213,8.925162 C 10.403426,7.446281 12.409084,6.615974 14.500059,6.6172742 Z"
     id="path38-7"
     inkscape:connector-curvature="0"
     style="fill:#37a032;fill-opacity:1;fill-rule:nonzero;stroke:#ffffff;stroke-width:0.33135259;stroke-miterlimit:4;stroke-dasharray:none;stroke-opacity:1" />
  <path
     d="M 12.64324,16.35682 8.9252213,20.07484 C 7.4463412,18.596633 6.6160339,16.590976 6.6173341,14.500001 h 5.2551509 c -0.002,0.697184 0.275544,1.366072 0.770755,1.856819 z"
     id="path40-0"
     inkscape:connector-curvature="0"
     style="fill:#4ec648;fill-opacity:1;fill-rule:nonzero;stroke:#ffffff;stroke-width:0.33135259;stroke-miterlimit:4;stroke-dasharray:none;stroke-opacity:1" />
  <path
     d="m 14.500059,17.127575 v 5.255152 C 12.409084,22.384027 10.403426,21.55372 8.9252213,20.07484 L 12.64324,16.35682 c 0.490748,0.495212 1.159637,0.772864 1.856819,0.770755 z"
     id="path42-3"
     inkscape:connector-curvature="0"
     style="fill:#339731;fill-opacity:1;fill-rule:nonzero;stroke:#ffffff;stroke-width:0.33135259;stroke-miterlimit:4;stroke-dasharray:none;stroke-opacity:1" />
  <path
     d="m 20.074898,20.07484 c -1.478207,1.47888 -3.483864,2.309187 -5.574839,2.307887 v -5.255152 c 0.697184,0.002 1.366073,-0.275543 1.856819,-0.770755 z"
     id="path44-0"
     inkscape:connector-curvature="0"
     style="fill:#297927;fill-opacity:1;fill-rule:nonzero;stroke:#ffffff;stroke-width:0.33135259;stroke-miterlimit:4;stroke-dasharray:none;stroke-opacity:1" />
  <path
     d="m 22.382785,14.500001 c 0.0013,2.090975 -0.829007,4.096632 -2.307887,5.574839 l -3.71802,-3.71802 c 0.495212,-0.490747 0.772865,-1.159635 0.770755,-1.856819 z"
     id="path46-7"
     inkscape:connector-curvature="0"
     style="fill:#1f5b1d;fill-opacity:1;fill-rule:nonzero;stroke:#ffffff;stroke-width:0.33135259;stroke-miterlimit:4;stroke-dasharray:none;stroke-opacity:1" />
  <path
     d="m 20.074898,8.925162 -3.71802,3.718019 C 15.866132,12.14797 15.197243,11.870319 14.500059,11.872427 V 6.6172742 c 2.090975,-0.00131 4.096632,0.8290068 5.574839,2.3078878 z"
     id="path48-4"
     inkscape:connector-curvature="0"
     style="fill:#2f892b;fill-opacity:1;fill-rule:nonzero;stroke:#ffffff;stroke-width:0.33135259;stroke-miterlimit:4;stroke-dasharray:none;stroke-opacity:1" />
  <path
     d="m 19.038434,14.492968 c 0.0033,2.176861 -1.52422,4.052701 -3.647834,4.479787 -2.123613,0.427088 -4.251548,-0.713597 -5.08183,-2.724129 -0.8302837,-2.010534 -0.13152,-4.330605 1.668737,-5.540689 1.800263,-1.2100827 4.200323,-0.9729421 5.731712,0.566328 0.854023,0.850688 1.332851,2.010171 1.329215,3.218703 z"
     id="path50-4"
     inkscape:connector-curvature="0"
     style="fill:url(#linearGradient987);fill-opacity:1;fill-rule:nonzero;stroke:none;stroke-width:0.57290852;stroke-miterlimit:4;stroke-dasharray:none;stroke-opacity:1" />
  <path
     inkscape:connector-curvature="0"
     style="opacity:1;fill:url(#linearGradient1071);fill-opacity:1;stroke:none;stroke-width:0.33335057;stroke-linecap:round;stroke-linejoin:round;stroke-miterlimit:4;stroke-dasharray:none;stroke-opacity:1"
     d="M 14.50012,0.67150645 A 14.062963,13.82858 0 0 0 0.43702299,14.500001 14.062963,13.82858 0 0 0 14.50012,28.328494 14.062963,13.82858 0 0 0 28.562977,14.500001 14.062963,13.82858 0 0 0 14.50012,0.67150645 Z m 0,1.14276795 A 12.807956,12.685741 0 0 1 27.30803,14.500001 12.807956,12.685741 0 0 1 14.50012,27.185725 12.807956,12.685741 0 0 1 1.6922101,14.500001 12.807956,12.685741 0 0 1 14.50012,1.8142744 Z"
     id="path958" />
</svg>
