<?xml version="1.0" encoding="UTF-8" standalone="no"?>
<svg
   xmlns:dc="http://purl.org/dc/elements/1.1/"
   xmlns:cc="http://creativecommons.org/ns#"
   xmlns:rdf="http://www.w3.org/1999/02/22-rdf-syntax-ns#"
   xmlns:svg="http://www.w3.org/2000/svg"
   xmlns="http://www.w3.org/2000/svg"
   xmlns:xlink="http://www.w3.org/1999/xlink"
   xmlns:sodipodi="http://sodipodi.sourceforge.net/DTD/sodipodi-0.dtd"
   xmlns:inkscape="http://www.inkscape.org/namespaces/inkscape"
   width="256"
   height="256"
   viewBox="0 0 29 29"
   version="1.1"
   id="svg54"
   sodipodi:docname="runCompletedWithErrorNew.svg"
   inkscape:version="0.92.5 (2060ec1f9f, 2020-04-08)">
  <metadata
     id="metadata58">
    <rdf:RDF>
      <cc:Work
         rdf:about="">
        <dc:format>image/svg+xml</dc:format>
        <dc:type
           rdf:resource="http://purl.org/dc/dcmitype/StillImage" />
        <dc:title>046 - Colour Wheel</dc:title>
      </cc:Work>
    </rdf:RDF>
  </metadata>
  <sodipodi:namedview
     pagecolor="#ffffff"
     bordercolor="#666666"
     borderopacity="1"
     objecttolerance="10"
     gridtolerance="10"
     guidetolerance="10"
     inkscape:pageopacity="0"
     inkscape:pageshadow="2"
     inkscape:window-width="1472"
     inkscape:window-height="1067"
     id="namedview56"
     showgrid="false"
     inkscape:zoom="2.6074563"
     inkscape:cx="92.616691"
     inkscape:cy="114.27858"
     inkscape:window-x="1291"
     inkscape:window-y="100"
     inkscape:window-maximized="0"
     inkscape:current-layer="svg54"
     inkscape:object-nodes="false" />
  <!-- Generator: Sketch 51.3 (57544) - http://www.bohemiancoding.com/sketch -->
  <title
     id="title2">046 - Colour Wheel</title>
  <desc
     id="desc4">Created with Sketch.</desc>
  <defs
     id="defs6">
    <linearGradient
       inkscape:collect="always"
       id="linearGradient1069">
      <stop
         style="stop-color:#1b3b57;stop-opacity:1"
         offset="0"
         id="stop1065" />
      <stop
         style="stop-color:#9dc1e1;stop-opacity:1"
         offset="1"
         id="stop1067" />
    </linearGradient>
    <linearGradient
       inkscape:collect="always"
       id="linearGradient985">
      <stop
         style="stop-color:#969696;stop-opacity:1"
         offset="0"
         id="stop981" />
      <stop
         style="stop-color:#fdfdfd;stop-opacity:1"
         offset="1"
         id="stop983" />
    </linearGradient>
    <linearGradient
       inkscape:collect="always"
       xlink:href="#linearGradient985"
       id="linearGradient987"
       x1="16.1385"
       y1="14.869027"
       x2="13.752616"
       y2="11.958201"
       gradientUnits="userSpaceOnUse"
       gradientTransform="translate(-2.5526457,-1.4985983)" />
    <linearGradient
       inkscape:collect="always"
       xlink:href="#linearGradient1069"
       id="linearGradient1071"
       x1="13.166443"
       y1="11.589176"
       x2="18.483709"
       y2="18.583841"
       gradientUnits="userSpaceOnUse" />
    <linearGradient
       inkscape:collect="always"
       xlink:href="#linearGradient864"
       id="linearGradient866"
       x1="146.22998"
       y1="106.32446"
       x2="88.997406"
       y2="46.005409"
       gradientUnits="userSpaceOnUse"
       gradientTransform="matrix(0.07106512,0,0,0.07106512,10.23674,10.381818)" />
    <linearGradient
       inkscape:collect="always"
       id="linearGradient864">
      <stop
         style="stop-color:#b40000;stop-opacity:1"
         offset="0"
         id="stop860" />
      <stop
         style="stop-color:#d40000;stop-opacity:1"
         offset="1"
         id="stop862" />
    </linearGradient>
  </defs>
  <path
     d="M 13.283591,1.1818491 V 5.6567994 C 11.341189,5.6555694 9.4780427,6.4269003 8.1048707,7.8007002 L 4.9398717,4.6357006 C 7.1506274,2.4198857 10.153535,1.176849 13.283591,1.1818491 Z"
     id="Shape-7"
     inkscape:connector-curvature="0"
     style="fill:#3570a7;fill-opacity:1;fill-rule:nonzero;stroke:#ffffff;stroke-width:0.8208226;stroke-miterlimit:4;stroke-dasharray:none;stroke-opacity:1" />
  <path
     d="M 21.627311,4.6357006 18.462313,7.8007002 C 17.089139,6.4269003 15.225993,5.6555904 13.283591,5.6567994 V 1.1818491 c 3.130058,-0.00499 6.132964,1.2380366 8.34372,3.4538515 z"
     id="path10-4"
     inkscape:connector-curvature="0"
     style="fill:#2e6190;fill-opacity:1;fill-rule:nonzero;stroke:#ffffff;stroke-width:0.8208226;stroke-miterlimit:4;stroke-dasharray:none;stroke-opacity:1" />
  <path
     d="m 25.081163,12.979421 h -4.47495 c 0.0012,-1.942402 -0.770101,-3.8055483 -2.1439,-5.1787208 l 3.164998,-3.1649996 c 2.215816,2.2107562 3.458851,5.2136641 3.453852,8.3437204 z"
     id="path12-5"
     inkscape:connector-curvature="0"
     style="fill:#26527a;fill-opacity:1;fill-rule:nonzero;stroke:#ffffff;stroke-width:0.8208226;stroke-miterlimit:4;stroke-dasharray:none;stroke-opacity:1" />
  <path
     d="m 25.081163,12.979421 c 0.005,3.130058 -1.238036,6.132964 -3.453852,8.34372 l -3.164998,-3.164998 c 1.373799,-1.373174 2.145109,-3.23632 2.1439,-5.178722 z"
     id="path14-4"
     inkscape:connector-curvature="0"
     style="fill:#1f4363;fill-opacity:1;fill-rule:nonzero;stroke:#ffffff;stroke-width:0.8208226;stroke-miterlimit:4;stroke-dasharray:none;stroke-opacity:1" />
  <path
     d="m 21.627311,21.323141 c -2.210756,2.215816 -5.213662,3.458851 -8.34372,3.453852 v -4.47495 c 1.942402,0.0012 3.805548,-0.770101 5.178722,-2.1439 z"
     id="path16-9"
     inkscape:connector-curvature="0"
     style="fill:#295881;fill-opacity:1;fill-rule:nonzero;stroke:#ffffff;stroke-width:0.8208226;stroke-miterlimit:4;stroke-dasharray:none;stroke-opacity:1" />
  <path
     d="m 13.283591,20.302043 v 4.47495 c -3.130056,0.005 -6.1329636,-1.238036 -8.3437193,-3.453852 l 3.164999,-3.164998 c 1.373172,1.373799 3.2363183,2.145109 5.1787203,2.1439 z"
     id="path18-1"
     inkscape:connector-curvature="0"
     style="fill:#336d9f;fill-opacity:1;fill-rule:nonzero;stroke:#ffffff;stroke-width:0.8208226;stroke-miterlimit:4;stroke-dasharray:none;stroke-opacity:1" />
  <path
     d="m 8.1048707,18.158143 -3.164999,3.164998 C 2.7240566,19.112385 1.4810199,16.109479 1.48602,12.979421 h 4.4749505 c -0.00123,1.942402 0.7701011,3.805548 2.1439002,5.178722 z"
     id="path20-9"
     inkscape:connector-curvature="0"
     style="fill:#508ec8;fill-opacity:1;fill-rule:nonzero;stroke:#ffffff;stroke-width:0.8208226;stroke-miterlimit:4;stroke-dasharray:none;stroke-opacity:1" />
  <path
     d="M 8.1048707,7.8007002 C 6.7310716,9.1738727 5.9597614,11.037019 5.9609705,12.979421 H 1.48602 C 1.48102,9.8493647 2.7240566,6.8464568 4.9398717,4.6357006 Z"
     id="path22-2"
     inkscape:connector-curvature="0"
     style="fill:#3c7fbe;fill-opacity:1;fill-rule:nonzero;stroke:#ffffff;stroke-width:0.8208226;stroke-miterlimit:4;stroke-dasharray:none;stroke-opacity:1" />
  <path
     d="m 20.606214,12.979421 h -4.88175 c 0.0019,-0.647644 -0.255964,-1.269006 -0.715989,-1.724884 l 3.453838,-3.4538368 c 1.373799,1.3731725 2.145109,3.2363188 2.143901,5.1787208 z"
     id="path32-5"
     inkscape:connector-curvature="0"
     style="fill:#26527a;fill-opacity:1;fill-rule:nonzero;stroke:#ffffff;stroke-width:0.30780849;stroke-miterlimit:4;stroke-dasharray:none;stroke-opacity:1" />
  <path
     d="m 11.558707,11.254537 c -0.460024,0.455878 -0.717947,1.07724 -0.715989,1.724884 H 5.9609692 C 5.9597492,11.037019 6.7310716,9.1738727 8.1048707,7.8007002 Z"
     id="path34-5"
     inkscape:connector-curvature="0"
     style="fill:#3c7fbe;fill-opacity:1;fill-rule:nonzero;stroke:#ffffff;stroke-width:0.30780849;stroke-miterlimit:4;stroke-dasharray:none;stroke-opacity:1" />
  <path
     d="m 15.724464,12.979421 c 0.0016,1.166568 -0.821031,2.171819 -1.964927,2.400693 -1.143896,0.228876 -2.290119,-0.382412 -2.737356,-1.459845 -0.447237,-1.077433 -0.07085,-2.320747 0.898875,-2.969224 0.969722,-0.648477 2.262528,-0.521395 3.087419,0.303492 0.460025,0.455878 0.717949,1.07724 0.715989,1.724884 z"
     id="path36-5"
     inkscape:connector-curvature="0"
     style="fill:#4482c3;fill-rule:nonzero;stroke:#ffffff;stroke-width:0.30780849;stroke-miterlimit:4;stroke-dasharray:none;stroke-opacity:1" />
  <path
     d="m 13.283591,5.6567982 v 4.8817498 c -0.647644,-0.0019 -1.269005,0.255965 -1.724884,0.715989 L 8.1048707,7.8007002 C 9.4780427,6.4269003 11.341189,5.6555904 13.283591,5.6567982 Z"
     id="path38-7"
     inkscape:connector-curvature="0"
     style="fill:#3570a7;fill-opacity:1;fill-rule:nonzero;stroke:#ffffff;stroke-width:0.30780849;stroke-miterlimit:4;stroke-dasharray:none;stroke-opacity:1" />
  <path
     d="M 11.558707,14.704305 8.1048707,18.158143 C 6.7310716,16.784969 5.9597614,14.921823 5.9609692,12.979421 h 4.8817488 c -0.0019,0.647646 0.255965,1.269007 0.715989,1.724884 z"
     id="path40-0"
     inkscape:connector-curvature="0"
     style="fill:#508ec8;fill-opacity:1;fill-rule:nonzero;stroke:#ffffff;stroke-width:0.30780849;stroke-miterlimit:4;stroke-dasharray:none;stroke-opacity:1" />
  <path
     d="m 13.283591,15.420294 v 4.88175 c -1.942402,0.0012 -3.8055483,-0.770102 -5.1787203,-2.143901 l 3.4538363,-3.453838 c 0.455879,0.460025 1.07724,0.717949 1.724884,0.715989 z"
     id="path42-3"
     inkscape:connector-curvature="0"
     style="fill:#336d9f;fill-opacity:1;fill-rule:nonzero;stroke:#ffffff;stroke-width:0.30780849;stroke-miterlimit:4;stroke-dasharray:none;stroke-opacity:1" />
  <path
     d="m 18.462313,18.158143 c -1.373174,1.373799 -3.23632,2.145109 -5.178722,2.143901 v -4.88175 c 0.647646,0.0019 1.269007,-0.255964 1.724884,-0.715989 z"
     id="path44-0"
     inkscape:connector-curvature="0"
     style="fill:#295881;fill-opacity:1;fill-rule:nonzero;stroke:#ffffff;stroke-width:0.30780849;stroke-miterlimit:4;stroke-dasharray:none;stroke-opacity:1" />
  <path
     d="m 20.606214,12.979421 c 0.0012,1.942402 -0.770102,3.805548 -2.143901,5.178722 l -3.453838,-3.453838 c 0.460025,-0.455877 0.717949,-1.077238 0.715989,-1.724884 z"
     id="path46-7"
     inkscape:connector-curvature="0"
     style="fill:#1f4363;fill-opacity:1;fill-rule:nonzero;stroke:#ffffff;stroke-width:0.30780849;stroke-miterlimit:4;stroke-dasharray:none;stroke-opacity:1" />
  <path
     d="M 18.462313,7.8007002 15.008475,11.254537 C 14.552598,10.794513 13.931237,10.53659 13.283591,10.538548 V 5.6567982 c 1.942402,-0.00122 3.805548,0.7701021 5.178722,2.143902 z"
     id="path48-4"
     inkscape:connector-curvature="0"
     style="fill:#2e6190;fill-opacity:1;fill-rule:nonzero;stroke:#ffffff;stroke-width:0.30780849;stroke-miterlimit:4;stroke-dasharray:none;stroke-opacity:1" />
  <path
     d="m 17.499494,12.972888 c 0.0031,2.022185 -1.415917,3.764738 -3.388639,4.161478 -1.972721,0.396742 -3.949456,-0.662893 -4.7207433,-2.530567 -0.771288,-1.867677 -0.122175,-4.022896 1.5501663,-5.1469983 1.672346,-1.1241006 3.901871,-0.90381 5.324448,0.526088 0.793341,0.7902423 1.238146,1.8673393 1.234768,2.9899993 z"
     id="path50-4"
     inkscape:connector-curvature="0"
     style="fill:url(#linearGradient987);fill-opacity:1;fill-rule:nonzero;stroke:none;stroke-width:0.53220081;stroke-miterlimit:4;stroke-dasharray:none;stroke-opacity:1" />
  <path
     inkscape:connector-curvature="0"
     style="opacity:1;fill:url(#linearGradient1071);fill-opacity:1;stroke:none;stroke-width:0.30966452;stroke-linecap:round;stroke-linejoin:round;stroke-miterlimit:4;stroke-dasharray:none;stroke-opacity:1"
     d="M 13.283648,0.1335039 A 13.063726,12.845997 0 0 0 0.21979697,12.979421 13.063726,12.845997 0 0 0 13.283648,25.825338 13.063726,12.845997 0 0 0 26.347276,12.979421 13.063726,12.845997 0 0 0 13.283648,0.1335039 Z m 0,1.0615692 A 11.897893,11.784362 0 0 1 25.181498,12.979421 11.897893,11.784362 0 0 1 13.283648,24.763768 11.897893,11.784362 0 0 1 1.3857974,12.979421 11.897893,11.784362 0 0 1 13.283648,1.1950731 Z"
     id="path958" />
  <circle
     style="opacity:1;fill:url(#linearGradient866);fill-opacity:1;stroke:#020000;stroke-width:0.98514575;stroke-linecap:round;stroke-linejoin:round;stroke-miterlimit:4;stroke-dasharray:none;stroke-opacity:1;paint-order:fill markers stroke"
     id="path858"
     cx="19.333078"
     cy="19.442074"
     r="9.0963345" />
  <g
     id="g870"
     transform="matrix(0.07106512,0,0,0.07106512,9.9983067,10.864305)">
    <g
       id="g871">
      <path
         style="fill:none;stroke:#ffffff;stroke-width:42.35168839;stroke-linecap:round;stroke-linejoin:round;stroke-miterlimit:4;stroke-dasharray:none;stroke-opacity:1"
         d="M 78.532143,67.208111 186.05935,173.66025"
         id="path864"
         inkscape:connector-curvature="0"
         sodipodi:nodetypes="cc" />
      <path
         inkscape:connector-curvature="0"
         id="path866"
         d="M 185.79075,66.670582 79.338601,173.66025"
         style="fill:none;stroke:#ffffff;stroke-width:42.35168839;stroke-linecap:round;stroke-linejoin:round;stroke-miterlimit:4;stroke-dasharray:none;stroke-opacity:1"
         sodipodi:nodetypes="cc" />
    </g>
  </g>
</svg>
